HIERARCHY
ROOT Hips
{
  OFFSET 5.84602e-005 68.8428 3.50346
  CHANNELS 6 Xposition Yposition Zposition Zrotation Xrotation Yrotation
  JOINT Spine
  {
    OFFSET 0 8.597 -4.6522
    CHANNELS 3 Zrotation Xrotation Yrotation
    JOINT Spine1
    {
      OFFSET 0 7.8454 0.4098
      CHANNELS 3 Zrotation Xrotation Yrotation
      JOINT Spine2
      {
        OFFSET 0 9.7078 -2.1609
        CHANNELS 3 Zrotation Xrotation Yrotation
        JOINT Neck
        {
          OFFSET 0 21.8761 -0.4549
          CHANNELS 3 Zrotation Xrotation Yrotation
          JOINT Head
          {
            OFFSET 0 12.3537 3.3602
            CHANNELS 3 Zrotation Xrotation Yrotation
            End Site
            {
              OFFSET 0.0001 18.9506 0.5657
            }
          }
        }
        JOINT LeftShoulder
        {
          OFFSET 2.2086 21.1115 7.2329
          CHANNELS 3 Zrotation Xrotation Yrotation
          JOINT LeftArm
          {
            OFFSET 13.1193 3.0282 -4.8998
            CHANNELS 3 Zrotation Xrotation Yrotation
            JOINT LeftForeArm
            {
              OFFSET 27.4081 -0.0973053 -0.2375
              CHANNELS 3 Zrotation Xrotation Yrotation
              JOINT LeftHand
              {
                OFFSET 22.8641 0.0662994 -0.1369
                CHANNELS 3 Zrotation Xrotation Yrotation
                JOINT LeftHandIndex1
                {
                  OFFSET 8.8614 0.775009 2.4612
                  CHANNELS 3 Zrotation Xrotation Yrotation
                  JOINT LeftHandIndex2
                  {
                    OFFSET 3.3146 -0.808304 0.5841
                    CHANNELS 3 Zrotation Xrotation Yrotation
                    JOINT LeftHandIndex3
                    {
                      OFFSET 2.2628 -0.552002 0.3989
                      CHANNELS 3 Zrotation Xrotation Yrotation
                      End Site
                      {
                        OFFSET 1.6102 -0.4807 0.2612
                      }
                    }
                  }
                }
                JOINT LeftHandMiddle1
                {
                  OFFSET 8.9937 0.895004 0.2143
                  CHANNELS 3 Zrotation Xrotation Yrotation
                  JOINT LeftHandMiddle2
                  {
                    OFFSET 4.0984 0.0113983 -0.0242
                    CHANNELS 3 Zrotation Xrotation Yrotation
                    JOINT LeftHandMiddle3
                    {
                      OFFSET 2.2716 0.00689697 -0.0138001
                      CHANNELS 3 Zrotation Xrotation Yrotation
                      End Site
                      {
                        OFFSET 2.0404 -0.1441 0.0027
                      }
                    }
                  }
                }
                JOINT LeftHandRing1
                {
                  OFFSET 8.5234 0.597198 -2.0164
                  CHANNELS 3 Zrotation Xrotation Yrotation
                  JOINT LeftHandRing2
                  {
                    OFFSET 3.7188 -0.188293 -0.2328
                    CHANNELS 3 Zrotation Xrotation Yrotation
                    JOINT LeftHandRing3
                    {
                      OFFSET 2.1191 -0.106598 -0.1332
                      CHANNELS 3 Zrotation Xrotation Yrotation
                      End Site
                      {
                        OFFSET 1.8737 -0.2304 -0.0886
                      }
                    }
                  }
                }
                JOINT LeftHandPinky1
                {
                  OFFSET 7.9094 -0.601089 -3.4825
                  CHANNELS 3 Zrotation Xrotation Yrotation
                  JOINT LeftHandPinky2
                  {
                    OFFSET 2.2874 -0.477005 -0.6314
                    CHANNELS 3 Zrotation Xrotation Yrotation
                    JOINT LeftHandPinky3
                    {
                      OFFSET 1.6774 -0.349396 -0.4633
                      CHANNELS 3 Zrotation Xrotation Yrotation
                      End Site
                      {
                        OFFSET 1.4888 -0.4091 -0.3416
                      }
                    }
                  }
                }
                JOINT LeftHandThumb1
                {
                  OFFSET 1.833 -1.3875 1.3896
                  CHANNELS 3 Zrotation Xrotation Yrotation
                  JOINT LeftHandThumb2
                  {
                    OFFSET 3.4129 -1.121 2.5732
                    CHANNELS 3 Zrotation Xrotation Yrotation
                    JOINT LeftHandThumb3
                    {
                      OFFSET 2.2474 -0.804199 1.6192
                      CHANNELS 3 Zrotation Xrotation Yrotation
                      End Site
                      {
                        OFFSET 1.6527 -0.5689 1.1317
                      }
                    }
                  }
                }
              }
            }
          }
        }
        JOINT RightShoulder
        {
          OFFSET -2.2086 21.1115 7.2329
          CHANNELS 3 Zrotation Xrotation Yrotation
          JOINT RightArm
          {
            OFFSET -13.1216 3.0287 -4.9007
            CHANNELS 3 Zrotation Xrotation Yrotation
            JOINT RightForeArm
            {
              OFFSET -27.4081 -0.0973053 -0.2375
              CHANNELS 3 Zrotation Xrotation Yrotation
              JOINT RightHand
              {
                OFFSET -22.8641 0.0664063 -0.1369
                CHANNELS 3 Zrotation Xrotation Yrotation
                JOINT RightHandIndex1
                {
                  OFFSET -8.8614 0.774994 2.4612
                  CHANNELS 3 Zrotation Xrotation Yrotation
                  JOINT RightHandIndex2
                  {
                    OFFSET -3.3146 -0.808304 0.5841
                    CHANNELS 3 Zrotation Xrotation Yrotation
                    JOINT RightHandIndex3
                    {
                      OFFSET -2.2628 -0.552002 0.3989
                      CHANNELS 3 Zrotation Xrotation Yrotation
                      End Site
                      {
                        OFFSET -1.6102 -0.4807 0.2612
                      }
                    }
                  }
                }
                JOINT RightHandMiddle1
                {
                  OFFSET -8.9937 0.894989 0.2143
                  CHANNELS 3 Zrotation Xrotation Yrotation
                  JOINT RightHandMiddle2
                  {
                    OFFSET -4.0984 0.0113983 -0.0242
                    CHANNELS 3 Zrotation Xrotation Yrotation
                    JOINT RightHandMiddle3
                    {
                      OFFSET -2.2716 0.00691223 -0.0138001
                      CHANNELS 3 Zrotation Xrotation Yrotation
                      End Site
                      {
                        OFFSET -2.0404 -0.1441 0.0027
                      }
                    }
                  }
                }
                JOINT RightHandRing1
                {
                  OFFSET -8.5234 0.597198 -2.0164
                  CHANNELS 3 Zrotation Xrotation Yrotation
                  JOINT RightHandRing2
                  {
                    OFFSET -3.7188 -0.188309 -0.2328
                    CHANNELS 3 Zrotation Xrotation Yrotation
                    JOINT RightHandRing3
                    {
                      OFFSET -2.1191 -0.106598 -0.1332
                      CHANNELS 3 Zrotation Xrotation Yrotation
                      End Site
                      {
                        OFFSET -1.8737 -0.2304 -0.0886
                      }
                    }
                  }
                }
                JOINT RightHandPinky1
                {
                  OFFSET -7.9094 -0.601105 -3.4825
                  CHANNELS 3 Zrotation Xrotation Yrotation
                  JOINT RightHandPinky2
                  {
                    OFFSET -2.2874 -0.477005 -0.6314
                    CHANNELS 3 Zrotation Xrotation Yrotation
                    JOINT RightHandPinky3
                    {
                      OFFSET -1.6774 -0.349396 -0.4633
                      CHANNELS 3 Zrotation Xrotation Yrotation
                      End Site
                      {
                        OFFSET -1.4888 -0.4091 -0.3416
                      }
                    }
                  }
                }
                JOINT RightHandThumb1
                {
                  OFFSET -1.833 -1.38751 1.3896
                  CHANNELS 3 Zrotation Xrotation Yrotation
                  JOINT RightHandThumb2
                  {
                    OFFSET -3.41299 -1.12099 2.5732
                    CHANNELS 3 Zrotation Xrotation Yrotation
                    JOINT RightHandThumb3
                    {
                      OFFSET -2.24741 -0.804108 1.6192
                      CHANNELS 3 Zrotation Xrotation Yrotation
                      End Site
                      {
                        OFFSET -1.6527 -0.5689 1.1317
                      }
                    }
                  }
                }
              }
            }
          }
        }
      }
    }
  }
  JOINT RightUpLeg
  {
    OFFSET -9.1966 3.8861 -0.7581
    CHANNELS 3 Zrotation Xrotation Yrotation
    JOINT RightLeg
    {
      OFFSET -0.7359 -41.0265 0
      CHANNELS 3 Zrotation Xrotation Yrotation
      JOINT RightFoot
      {
        OFFSET 0 -40.2855 0
        CHANNELS 3 Zrotation Xrotation Yrotation
        JOINT RightToeBase
        {
          OFFSET 0 -5.6122 11.7359
          CHANNELS 3 Zrotation Xrotation Yrotation
          End Site
          {
            OFFSET 0 0 7.8731
          }
        }
      }
    }
  }
  JOINT LeftUpLeg
  {
    OFFSET 9.1965 3.8864 -0.7581
    CHANNELS 3 Zrotation Xrotation Yrotation
    JOINT LeftLeg
    {
      OFFSET 0.7359 -41.0268 0
      CHANNELS 3 Zrotation Xrotation Yrotation
      JOINT LeftFoot
      {
        OFFSET 0 -40.2855 0
        CHANNELS 3 Zrotation Xrotation Yrotation
        JOINT LeftToeBase
        {
          OFFSET 0 -5.6122 11.7359
          CHANNELS 3 Zrotation Xrotation Yrotation
          End Site
          {
            OFFSET 0 0 7.8731
          }
        }
      }
    }
  }
}
MOTION
Frames:	4
Frame Time:	0.0333333
5.84602e-005 68.8428 3.50346 0 0 -0 0 0 -0 0 0 -0 0 0 -0 0 0 -0 0 0 -0 0 0 -0 0 0 -0 0 0 -0 0 0 -0 0 0 -0 0 0 -0 0 0 -0 0 0 -0 -0.0146107 -8.87603e-005 -2.63497e-007 2.99804e-018 -2.42657e-020 -1.42182e-022 0 0 -0 -0.0187562 -0.001176 5.858e-005 5.06224e-018 3.88251e-019 1.21329e-020 0 0 -0 -0.012269 -0.00324817 0.000675346 -1.74678e-018 3.88251e-019 -0 0 0 -0 0 0 -0 0 0 -0 0 0 -0 0 0 -0 0 0 -0 0 0 -0 0 0 -0 0 0 -0 0 0 -0 0 0 -0 0.0149955 -9.10982e-005 2.64101e-007 -9.69331e-018 1.21329e-020 -4.7394e-023 0 0 -0 0.0189956 -0.00119102 -5.96516e-005 -5.41541e-019 0 2.42657e-020 0 0 -0 0.0122698 -0.00324857 -0.000673756 -2.00796e-019 0 -1.94126e-019 0 0 -0 0 0 -0 0 0 -0 3.39842 1.33031 -0.0637918 -5.65207e-008 0.834868 -0.000436188 -3.39935 -2.16518 -0.0642563 -8.89002e-024 -1.18485e-023 -1.48106e-024 -3.39844 1.35642 0.0640283 -3.18788e-007 0.782166 -0.000588827 3.39931 -2.13858 0.0634662 1.1399e-023 0 -0 
29.4364 14.7534 6.14081 -0 -18.5194 -0 -0.00723158 -2.26978 -0.0965337 -0.0183153 -4.53948 -0.193583 -0.0183154 -4.53948 -0.193583 -4.3529e-006 13.3559 3.69958e-006 8.12038e-009 6.70748 4.4197e-008 -10.2384 10.6533 2.65087 -48.6924 -7.23496 -30.6293 10.1276 22.9694 -16.2852 -42.0323 8.0909 5.81744 3.18055e-015 1.59028e-014 -0 2.0329e-007 -3.05069e-007 -2.18239e-007 6.36111e-015 1.59028e-014 -3.18055e-015 3.18055e-015 1.59028e-014 -0 -0.0146716 -8.69372e-005 -1.0817e-006 3.18055e-015 1.27222e-014 -3.18055e-015 3.18055e-015 1.59028e-014 -0 -0.0188381 -0.00118119 6.03914e-005 1.76556e-031 -3.18055e-015 3.18055e-015 3.18055e-015 1.59028e-014 -0 -0.0122843 -0.00325573 0.000676236 6.36111e-015 -6.36111e-015 3.18055e-015 3.18055e-015 1.59028e-014 -0 2.0329e-007 -3.05069e-007 -2.18239e-007 6.36111e-015 1.59028e-014 -3.18055e-015 10.2651 10.4449 -2.48133 48.4003 -7.39149 30.3625 -10.4135 22.8326 16.6747 42.3864 8.14251 -6.19583 1.00287e-007 1.53434e-007 -1.09173e-007 1.00287e-007 1.53434e-007 -1.09173e-007 3.00861e-007 4.60301e-007 -3.2752e-007 1.00287e-007 1.53434e-007 -1.09173e-007 0.0149926 -8.94072e-005 7.51629e-006 3.00858e-007 4.60258e-007 -3.2758e-007 1.00287e-007 1.53434e-007 -1.09173e-007 0.0189767 -0.00119081 -6.81321e-005 3.00854e-007 4.60247e-007 -3.27599e-007 1.00287e-007 1.53434e-007 -1.09173e-007 0.0122687 -0.00324412 -0.000667961 3.00847e-007 4.60268e-007 -3.27577e-007 1.00287e-007 1.53434e-007 -1.09173e-007 1.00287e-007 1.53434e-007 -1.09173e-007 3.00861e-007 4.60301e-007 -3.2752e-007 -18.7887 -65.7965 -77.7954 1.24299 38.6457 -1.96897 -3.72221 9.98306 -4.79042 2.73573e-006 1.02625e-006 -9.34078e-007 18.7621 -65.7867 77.7523 -1.27202 38.6503 1.97383 3.72265 9.98867 4.79544 -5.62921e-006 1.29137e-006 -6.0394e-006 
42.6827 -9.21476 7.48233 -0 -26.8531 -0 -0.0114521 -3.20733 -0.140319 -0.0308585 -6.41463 -0.281947 -0.0308586 -6.41465 -0.281947 -7.2202e-006 19.2509 2.8466e-006 6.05978e-008 9.51859 -1.66822e-009 -15.0542 15.1166 3.62435 -72.8694 -8.80957 -44.7086 19.4242 31.8479 -25.6046 -61.3676 11.6284 8.34487 2.97927e-007 -2.1656e-007 -2.14991e-007 2.97927e-007 -2.1656e-007 -2.14991e-007 2.97927e-007 -2.1656e-007 -2.14991e-007 2.97927e-007 -2.1656e-007 -2.14991e-007 -0.0146069 -9.5271e-005 5.91735e-007 2.97924e-007 -2.16533e-007 -2.15019e-007 2.97927e-007 -2.1656e-007 -2.14991e-007 -0.0187345 -0.00117923 6.21544e-005 2.77195e-007 -1.62742e-006 1.0012e-006 2.97927e-007 -2.1656e-007 -2.14991e-007 -0.0122704 -0.00325044 0.000674623 2.97918e-007 -2.1654e-007 -2.15022e-007 2.97927e-007 -2.1656e-007 -2.14991e-007 2.97927e-007 -2.1656e-007 -2.14991e-007 2.97927e-007 -2.1656e-007 -2.14991e-007 15.0713 14.8233 -3.36662 72.4798 -9.0347 44.3336 -19.9029 31.5886 26.1777 61.9125 11.6913 -8.8933 -2.95318e-007 -2.20063e-007 2.15253e-007 5.90635e-007 4.40126e-007 -4.30505e-007 -3.18055e-015 2.20651e-014 -2.16675e-014 -2.95318e-007 -2.20063e-007 2.15253e-007 0.0149537 -9.40999e-005 -5.52064e-006 3.18055e-015 5.96354e-016 5.96354e-016 -2.95318e-007 -2.20063e-007 2.15253e-007 0.0190523 -0.00119612 -6.57215e-005 3.13318e-030 -1.53064e-014 1.17283e-014 -2.95318e-007 -2.20063e-007 2.15253e-007 0.0122747 -0.00325047 -0.000682176 -9.54166e-015 6.75868e-015 -7.95139e-016 -2.95318e-007 -2.20063e-007 2.15253e-007 5.90635e-007 4.40126e-007 -4.30505e-007 -3.18055e-015 2.20651e-014 -2.16675e-014 -55.4594 -44.5327 -126.748 2.02431 54.0739 -3.23152 -3.45677 16.086 -7.0522 -3.53113e-031 6.36111e-015 3.18055e-015 55.451 -44.545 126.717 -2.06771 54.0819 3.23937 3.45515 16.0932 7.05993 -5.40558e-007 -4.21888e-006 3.11385e-007 
39.7391 -3.92432 7.1051 -0 -25.0011 -0 -0.0113765 -2.81271 -0.130444 -0.0292262 -5.62527 -0.261922 -0.0292262 -5.62526 -0.261923 -3.04241e-006 17.685 1.62512e-006 -2.77945e-008 8.43322 -9.92655e-008 -13.7188 13.4284 2.75634 -67.2267 -8.81752 -41.6504 16.8305 30.1137 -22.9623 -56.7734 10.764 7.36963 -4.6346e-031 -5.56597e-015 -4.77083e-015 -0 0 3.97569e-015 2.78596e-007 -2.36076e-007 -2.20339e-007 -4.6346e-031 -5.56597e-015 -4.77083e-015 -0.0145921 -8.24264e-005 -4.17877e-006 2.78594e-007 -2.36048e-007 -2.2037e-007 -4.6346e-031 -5.56597e-015 -4.77083e-015 -0.018784 -0.0011874 6.3107e-005 2.78591e-007 -2.3604e-007 -2.20381e-007 -4.6346e-031 -5.56597e-015 -4.77083e-015 -0.0123088 -0.00325936 0.000684946 2.78586e-007 -2.36055e-007 -2.20373e-007 -4.6346e-031 -5.56597e-015 -4.77083e-015 -0 0 3.97569e-015 2.78596e-007 -2.36076e-007 -2.20339e-007 13.7527 13.1677 -2.50883 66.8541 -9.03319 41.2984 -17.26 29.8928 23.4902 57.2575 10.8192 -7.86339 -5.51793e-007 -4.78359e-007 4.41168e-007 -8.27689e-007 -7.17539e-007 6.61752e-007 6.36111e-015 -7.95139e-016 -0 -5.51793e-007 -4.78359e-007 4.41168e-007 0.0149815 -9.45722e-005 2.21892e-006 3.18055e-015 -2.38542e-015 7.95139e-015 -5.51793e-007 -4.78359e-007 4.41168e-007 0.0190278 -0.00119803 -6.31638e-005 3.18055e-015 -6.36111e-015 2.38542e-015 -5.51793e-007 -4.78359e-007 4.41168e-007 0.0122581 -0.00324853 -0.000676583 3.18055e-015 -1.98785e-014 4.77083e-015 -5.51793e-007 -4.78359e-007 4.41168e-007 -8.27689e-007 -7.17539e-007 6.61752e-007 6.36111e-015 -7.95139e-016 -0 -52.6177 -50.9447 -122.004 1.85991 50.3967 -2.92379 -3.54165 14.7387 -6.53706 -9.08643e-007 -1.86726e-006 -2.36026e-006 52.6032 -50.9538 121.969 -1.89909 50.4024 2.92924 3.54065 14.7456 6.54414 -1.20308e-005 -2.00623e-006 -1.61183e-006 
